<svg xmlns="http://www.w3.org/2000/svg" width="512" height="210.26" viewBox="0 0 512 210.26"><defs><style>.a{fill:#02334c;}</style></defs><title>cda-e_logo_pref_blue-dark128px</title><path class="a" d="M443.29,141.41V124.54a24,24,0,0,1,40.83-16.94,23.31,23.31,0,0,1,7.09,17.34,16.44,16.44,0,0,1-.81,5.67,5.44,5.44,0,0,1-2.7,3.1,11,11,0,0,1-3.44,1.15,34.69,34.69,0,0,1-4.25.2H448v6.34q0,9,6.34,14.44t16.47,5.4a21.68,21.68,0,0,0,8.37-1.42,21.93,21.93,0,0,0,5.06-2.77,5,5,0,0,1,2.5-1.35,2.24,2.24,0,0,1,1.69.81,2.43,2.43,0,0,1,.74,1.62q0,1.35-2.16,3.17a19.61,19.61,0,0,1-6.61,3.24,32.38,32.38,0,0,1-9.85,1.42q-12,0-19.64-6.82T443.29,141.41ZM448,130.34h30.37q5,0,6.55-.94t1.55-4a20.42,20.42,0,0,0-5.4-13.84,17.52,17.52,0,0,0-13.77-6.14,18.41,18.41,0,0,0-13.7,5.74,18.61,18.61,0,0,0-5.6,13.43Z"/><path class="a" d="M391,132.77q0-2.43,2.29-2.43H428.4a2.54,2.54,0,0,1,2.43,2.43,2.12,2.12,0,0,1-.74,1.62,2.44,2.44,0,0,1-1.69.67H393.31A2,2,0,0,1,391,132.77Z"/><path class="a" d="M316.88,161.39a2.31,2.31,0,0,1,.14-.94l28.21-91.65q.94-3.11,5.23-3.11t5.36,3.12L384,160.67a1.6,1.6,0,0,0,.07.39,1.74,1.74,0,0,1,.07.38,3.12,3.12,0,0,1-1.75,2.63,6.79,6.79,0,0,1-3.64,1.09,3.24,3.24,0,0,1-3.37-2.29l-6.21-20.79H331.84l-6.26,20.81q-.54,2.28-3.53,2.28a6.27,6.27,0,0,1-3.53-1.08A3.17,3.17,0,0,1,316.88,161.39Zm17.27-27h32.67L350.54,79.88Z"/><path class="a" d="M251,161.79V69.74a2.88,2.88,0,0,1,1.15-2.29,4.42,4.42,0,0,1,2.9-.94H279q12.82,0,20.52,7t7.69,21.8v41q0,15-7.69,21.93t-20.52,7H255.07a4.22,4.22,0,0,1-2.9-1A3.06,3.06,0,0,1,251,161.79Zm8.91-4.86h19q9.18,0,14.24-5.2t5.06-15.45v-41q0-10.26-5.06-15.39T279,74.73h-19Z"/><path class="a" d="M181,137.09V95.25q0-14.71,7.9-21.73t20.45-7q12.82,0,20.31,6.55a20.46,20.46,0,0,1,7.49,16q0,3.24-1,4.32a4.57,4.57,0,0,1-3.44,1.08q-4.19,0-4.45-3.37a27.45,27.45,0,0,0-.54-3.91,17.57,17.57,0,0,0-1.62-4.25,14.26,14.26,0,0,0-3.17-4.12,15.23,15.23,0,0,0-5.47-2.9,26.12,26.12,0,0,0-8.1-1.15q-19.44,0-19.44,20.52v41.84q0,20.65,20,20.65a25,25,0,0,0,9.45-1.55,11,11,0,0,0,5.53-4.52,23.11,23.11,0,0,0,2.36-5.06,35.3,35.3,0,0,0,1-5.47q.41-3.51,4.45-3.51a4.41,4.41,0,0,1,3.44,1.15q1,1.15,1,4.39a20.64,20.64,0,0,1-7.63,16.2Q221.88,166,208.92,166q-12.42,0-20.18-7T181,137.09Z"/><path class="a" d="M124.7,123.5a23.17,23.17,0,1,0,23.17,23.17A23.2,23.2,0,0,0,124.7,123.5Z"/><path class="a" d="M135.45,101.56h-7.09V87.77L125,91.17a.38.38,0,0,1-.54,0l-3.4-3.4v13.78h-7.09a.38.38,0,0,0-.34.55l10.75,21.19a.38.38,0,0,0,.68,0l10.75-21.17a.38.38,0,0,0-.33-.57Z"/><path class="a" d="M150,65.57,125,40.51a.38.38,0,0,0-.54,0L99.37,65.57a.38.38,0,0,0,0,.54l25.06,25.06a.38.38,0,0,0,.54,0L150,66.11A.38.38,0,0,0,150,65.57Z"/><path class="a" d="M99.07,65.51,80,55a.38.38,0,0,0-.56.33v7.26H66.91a23.19,23.19,0,0,1,0,6.57H79.48v7.26a.38.38,0,0,0,.56.33l19-10.55a.38.38,0,0,0,0-.66Z"/><path class="a" d="M44,42.67A23.17,23.17,0,1,0,67.15,65.84,23.2,23.2,0,0,0,44,42.67Z"/><path class="a" d="M55.06,110.41,44.31,89.22a.38.38,0,0,0-.68,0L32.88,110.41a.38.38,0,0,0,.34.55h7.09V126h7.33V111h7.09a.38.38,0,0,0,.34-.55Z"/><rect class="a" x="23.31" y="126.02" width="41.32" height="41.32" rx="0.38" ry="0.38"/></svg>