<svg xmlns="http://www.w3.org/2000/svg" width="32" height="32" viewBox="0 0 32 32"><title>cda-e_icon-analise_black32</title><path d="M4.85,28a1.58,1.58,0,0,1-1.16-.49,1.58,1.58,0,0,1-.49-1.16V4.86A1.58,1.58,0,0,1,3.69,3.7a1.58,1.58,0,0,1,1.16-.49H19.71a1.59,1.59,0,0,1,1.16.49,1.59,1.59,0,0,1,.49,1.16V13.7a5.89,5.89,0,0,1,2.37,2.09,5.65,5.65,0,0,1,.62,4.94,5.93,5.93,0,0,1-.85,1.6l5.07,5a.87.87,0,0,1,0,1.18,1.19,1.19,0,0,1-.28.17.77.77,0,0,1-.62,0,.79.79,0,0,1-.26-.17l-5.07-5.07q-.23.18-.48.33a3.09,3.09,0,0,1-.5.26v2.24A1.67,1.67,0,0,1,19.71,28Zm13-18.4a.82.82,0,0,0-.58-1.4H7.32a.82.82,0,0,0,0,1.65h9.92A.79.79,0,0,0,17.82,9.56ZM7.32,13.1a.84.84,0,0,0-.82.82.78.78,0,0,0,.24.59.81.81,0,0,0,.58.23h7.52a6.21,6.21,0,0,1,1.29-.94,5.13,5.13,0,0,1,1.52-.55.84.84,0,0,0-.21-.12.59.59,0,0,0-.21,0Zm0,5a.81.81,0,0,0-.58.23.78.78,0,0,0-.24.59.84.84,0,0,0,.82.82h5.87a3.36,3.36,0,0,1-.08-.41,3.3,3.3,0,0,1,0-.41,3.21,3.21,0,0,1,0-.42,3.51,3.51,0,0,1,.08-.4ZM18.88,23A4.13,4.13,0,0,0,23,18.9a4.13,4.13,0,0,0-4.12-4.15,4.13,4.13,0,0,0-4.15,4.15A4.13,4.13,0,0,0,18.88,23Z"/></svg>