<?xml version="1.0" standalone="no"?>
<!DOCTYPE svg PUBLIC "-//W3C//DTD SVG 20010904//EN"
 "http://www.w3.org/TR/2001/REC-SVG-20010904/DTD/svg10.dtd">
<svg version="1.0" xmlns="http://www.w3.org/2000/svg"
 width="1280.000000pt" height="1180.000000pt" viewBox="0 0 1280.000000 1180.000000"
 preserveAspectRatio="xMidYMid meet">
<g transform="translate(0.000000,1180.000000) scale(0.100000,-0.100000)"
fill="#000000" stroke="none">
<path d="M4115 11789 c-49 -5 -162 -16 -249 -24 -1228 -119 -2340 -728 -3077
-1685 -306 -397 -552 -907 -667 -1380 -60 -247 -85 -414 -113 -753 -13 -154
-8 -274 27 -567 122 -1046 683 -1994 1580 -2671 535 -403 1198 -690 1879 -814
452 -83 975 -97 1420 -40 1204 154 2251 746 2966 1675 271 352 505 809 625
1225 193 665 204 1314 34 1970 -212 820 -702 1557 -1400 2106 -670 527 -1478
850 -2330 933 -401 39 -508 43 -695 25z m545 -1160 c806 -79 1556 -457 2064
-1039 207 -237 348 -456 469 -730 302 -687 296 -1460 -17 -2150 -140 -307
-322 -566 -581 -826 -427 -428 -962 -717 -1570 -848 -859 -184 -1758 -18
-2475 457 -174 115 -307 224 -471 387 -175 174 -253 269 -374 450 -235 354
-368 706 -431 1142 -21 140 -24 491 -5 628 87 654 372 1216 846 1668 513 490
1173 789 1900 862 205 20 434 20 645 -1z"/>
<path d="M8495 5023 c-268 -371 -785 -847 -1148 -1059 -37 -22 -66 -44 -64
-50 3 -17 4208 -3889 4223 -3889 7 0 78 59 156 131 562 516 1113 1026 1116
1034 2 4 -829 775 -1845 1711 -1016 937 -1966 1813 -2111 1946 -144 134 -266
243 -270 243 -5 0 -30 -30 -57 -67z"/>
</g>
</svg>
