<svg width="53" height="48" viewBox="0 0 53 48" fill="none" xmlns="http://www.w3.org/2000/svg">
<path d="M4.11062 0H45.2164C47.4772 0 49.327 1.84933 49.327 4.10969V9.04131C49.327 11.3017 47.4772 13.151 45.2164 13.151H4.11062C1.84975 13.1508 0 11.3015 0 9.0412V4.10958C0 1.84933 1.84975 0 4.11062 0Z" transform="translate(0 6.76449)" fill="#A86A3F"/>
<path d="M7.769 6.88227L33.5012 0.0603108C34.3645 -0.18626 35.2688 0.347994 35.5154 1.21104L39.7904 16.9921C40.037 17.8551 39.5026 18.7592 38.6394 19.0058L5.13825 27.9236C4.275 28.1702 3.37074 27.6359 3.12411 26.7729L0 15.1838L7.769 6.88227Z" transform="translate(5.34375 4.27947)" fill="#3DB39E"/>
<path d="M32.5463 12.6893L26.997 14.1687C26.5449 14.292 26.0927 14.0454 26.0105 13.5933C25.8872 13.1413 26.1339 12.6892 26.586 12.6071L31.3543 11.3331L28.8058 1.79875L24.0375 3.07272C23.5854 3.19605 23.1331 2.94938 23.051 2.49735C22.9276 2.04532 23.1744 1.59319 23.6265 1.51107L29.1758 0.0316425C29.6279 -0.091695 30.0801 0.15498 30.1623 0.607009L33.1219 11.703C33.245 12.155 32.9984 12.6071 32.5463 12.6893ZM9.52704 18.8949L3.97778 20.3743C3.52565 20.4976 3.07341 20.251 2.99127 19.7989L0.0316497 8.70294C-0.0917158 8.25091 0.155015 7.79878 0.607147 7.71665L6.1564 6.23723C6.60853 6.11389 7.06077 6.36057 7.14291 6.8126C7.26627 7.26463 7.01954 7.71676 6.56741 7.79888L1.79916 9.07285L4.34767 18.6072L9.11592 17.3332C9.56805 17.2099 10.0203 17.4566 10.1024 17.9086C10.2258 18.3195 9.97917 18.7715 9.52704 18.8949Z" transform="translate(8.1073 8.08904)" fill="#78CABB"/>
<path d="M0.0412262 15.9653C7.35799 11.7734 27.0889 0.225273 27.0889 0.225273C27.8699 -0.226755 28.8975 0.0198152 29.3497 0.80064L37.5708 14.9378C38.023 15.7186 37.7352 16.7049 36.9542 17.1571L6.86474 34.4175C6.08374 34.8695 5.05611 34.623 4.60387 33.8422C4.60387 33.8422 2.30199 29.1572 0 25.2119C0.00010437 15.9653 0.0412262 19.0064 0.0412262 15.9653Z" transform="translate(0.287598 0.949997)" fill="#5ABEAC"/>
<path d="M32.9289 10.3595L27.1742 0.414183C26.9275 0.00326637 26.4343 -0.120072 26.0643 0.126499L21.0905 3.00323C20.6795 3.2498 20.5561 3.74294 20.8028 4.11285C21.0494 4.52376 21.5427 4.6471 21.9126 4.40053L26.1876 1.93472L31.1204 10.4828L26.8454 12.9486C26.4344 13.1952 26.311 13.6883 26.5576 14.0582C26.8043 14.4691 27.2975 14.5925 27.6675 14.3459L32.6413 11.4692C33.0112 11.2637 33.1755 10.7706 32.9289 10.3595ZM11.1429 21.9899L6.8679 24.4557L1.93516 15.9075L6.21016 13.4417C6.62117 13.1952 6.74453 12.702 6.49791 12.3321C6.25128 11.9212 5.75803 11.7979 5.38804 12.0444L0.414276 14.9212C0.00326682 15.1677 -0.120099 15.6609 0.126528 16.0308L5.88129 25.9761C6.12792 26.3871 6.62117 26.5104 6.99116 26.2638L11.9649 23.3871C12.3759 23.1405 12.4993 22.6474 12.2527 22.2775C12.0472 21.9077 11.5539 21.7432 11.1429 21.9899ZM13.2393 7.48282C10.0742 9.29104 9.0054 13.3185 10.814 16.4829C12.6638 19.6473 16.651 20.7158 19.8162 18.9076C22.9813 17.0994 24.05 13.0719 22.2414 9.90752C20.3917 6.78412 16.4044 5.6746 13.2393 7.48282ZM32.9289 10.3595L27.1742 0.414183C26.9275 0.00326637 26.4343 -0.120072 26.0643 0.126499L21.0905 3.00323C20.6795 3.2498 20.5561 3.74294 20.8028 4.11285C21.0494 4.52376 21.5427 4.6471 21.9126 4.40053L26.1876 1.93472L31.1204 10.4828L26.8454 12.9486C26.4344 13.1952 26.311 13.6883 26.5576 14.0582C26.8043 14.4691 27.2975 14.5925 27.6675 14.3459L32.6413 11.4692C33.0112 11.2637 33.1755 10.7706 32.9289 10.3595ZM11.1429 21.9899L6.8679 24.4557L1.93516 15.9075L6.21016 13.4417C6.62117 13.1952 6.74453 12.702 6.49791 12.3321C6.25128 11.9212 5.75803 11.7979 5.38804 12.0444L0.414276 14.9212C0.00326682 15.1677 -0.120099 15.6609 0.126528 16.0308L5.88129 25.9761C6.12792 26.3871 6.62117 26.5104 6.99116 26.2638L11.9649 23.3871C12.3759 23.1405 12.4993 22.6474 12.2527 22.2775C12.0472 21.9077 11.5539 21.7432 11.1429 21.9899ZM13.2393 7.48282C10.0742 9.29104 9.0054 13.3185 10.814 16.4829C12.6638 19.6473 16.651 20.7158 19.8162 18.9076C22.9813 17.0994 24.05 13.0719 22.2414 9.90752C20.3917 6.78412 16.4044 5.6746 13.2393 7.48282Z" transform="translate(0.736694 5.07623)" fill="#8CD2C5"/>
<path d="M46.8606 36.9869H4.11062C1.84975 36.9869 0 35.1375 0 32.8772V3.28775H46.8606C49.1215 3.28775 50.9712 5.13708 50.9712 7.39743V32.8773C50.9711 35.1375 49.1214 36.9869 46.8606 36.9869ZM3.28849 3.28775H0V0C0 1.80822 1.47976 3.28775 3.28849 3.28775Z" transform="translate(0 10.8741)" fill="#C47E4D"/>
<path d="M12.3316 11.5069H5.75476C2.58963 11.5069 0 8.91787 0 5.75346C0 2.58904 2.58963 0 5.75476 0H12.3316C13.236 0 13.9759 0.739712 13.9759 1.64387V9.86314C13.9759 10.7672 13.236 11.5069 12.3316 11.5069Z" transform="translate(38.6395 26.0798)" fill="#A86A3F"/>
<path d="M3.28849 0C5.09712 0 6.57699 1.47942 6.57699 3.28775C6.57699 5.09607 5.09723 6.5755 3.28849 6.5755C1.47986 6.5755 0 5.09607 0 3.28775C0 1.47942 1.47986 0 3.28849 0Z" transform="translate(41.1058 28.5456)" fill="#EFC75E"/>
<path d="M4.11062 5.17819C2.30199 5.17819 0.822122 3.69877 0.822122 1.89045C0.822122 1.19185 1.02763 0.534254 1.39762 0C0.534374 0.575366 0 1.56165 0 2.71238C0 4.5206 1.47976 6.00013 3.28849 6.00013C4.39837 6.00013 5.38487 5.42476 6.00149 4.60283C5.46711 4.97273 4.80937 5.17819 4.11062 5.17819Z" transform="translate(41.1058 29.1208)" fill="#D7B354"/>
<path d="M46.8606 4.10969H4.11062C1.84975 4.10969 0 2.26035 0 0V1.64387C0 3.90423 1.84975 5.75356 4.11062 5.75356H46.8606C49.1215 5.75356 50.9712 3.90423 50.9712 1.64387V0C50.9711 2.26035 49.1214 4.10969 46.8606 4.10969Z" transform="translate(0 42.1074)" fill="#B27245"/>
<path d="M46.8606 3.28775H3.28849C1.47976 3.28775 0 1.80822 0 0V1.64387C0 3.45209 1.47976 4.93162 3.28849 4.93162H46.8606C49.1215 4.93162 50.9712 6.78096 50.9712 9.04131V7.39743C50.9711 5.13708 49.1214 3.28775 46.8606 3.28775Z" transform="translate(0 10.8741)" fill="#CA8B5F"/>
</svg>
