<svg width="81" height="110" viewBox="0 0 81 110" fill="none" xmlns="http://www.w3.org/2000/svg">
<path d="M74.6909 0H70.2842H59.6571H40.5H21.3442H10.7172H6.30907C2.82451 0 0 2.84042 0 6.34441V54.236C0 57.7399 2.82451 60.5804 6.30907 60.5804H40.4998H74.6907C78.1751 60.5804 80.9998 57.7399 80.9998 54.236V6.34441C80.9998 2.84042 78.1753 0 74.6909 0Z" transform="translate(0 49.4196)" fill="#DC8744"/>
<path d="M0.000704629 10.687C10.5641 10.687 19.1571 19.3284 19.1571 29.9514V45.5598H29.7842V29.9514C29.7842 13.4365 16.4232 0 0.000704629 0H3.56711e-05V10.687C-0.000186871 10.687 0.000704629 10.687 0.000704629 10.687Z" transform="translate(40.5)" fill="#3A556A"/>
<path d="M25.9277 11.079C27.1731 10.8219 28.4627 10.687 29.7828 10.687V0C13.3608 0.000447593 0 13.4365 0 29.9516V30.273H10.6271V29.9516C10.6271 24.64 12.7753 19.8239 16.244 16.3356C17.1113 15.4634 18.0609 14.6743 19.0801 13.9815C21.119 12.5955 23.4357 11.5933 25.9277 11.079Z" transform="translate(10.7168)" fill="#64798A"/>
<path d="M21.344 0H10.717H6.30907C2.82451 0 0 2.84042 0 6.34441V54.236C0 57.7399 2.82451 60.5804 6.30907 60.5804H40.4998V0H21.344Z" transform="translate(0 45.5598)" fill="#FCD462"/>
<path d="M34.1909 0H29.7842H19.1571H0V60.5806H34.1909C37.6753 60.5806 40.5 57.7402 40.5 54.2362V6.34463C40.4998 2.84065 37.6753 0 34.1909 0Z" transform="translate(40.5 45.5598)" fill="#F6C358"/>
<path d="M14.423 7.25212C14.423 3.24706 11.1943 0 7.21148 0C3.22864 0 0 3.24684 0 7.25212C0 9.8269 1.34304 12.0743 3.35415 13.3611L1.20328 23.6663H13.2192L11.0688 13.3609C13.0799 12.0743 14.423 9.8269 14.423 7.25212Z" transform="translate(33.2881 59.3522)" fill="#DC8744"/>
</svg>
