<svg width="55" height="56" viewBox="0 0 55 56" fill="none" xmlns="http://www.w3.org/2000/svg">
<path d="M22.4734 17.7384L11.8325 7.07824C11.9177 6.73709 11.9177 6.3534 11.9177 5.96959C11.9177 2.68631 9.23621 0 5.95884 0C2.68147 0 0 2.68631 0 5.96959C0 9.25288 2.68147 11.9392 5.95884 11.9392C6.34195 11.9392 6.72496 11.8965 7.06549 11.8539L17.6638 22.514C18.9833 23.8358 21.1115 23.8358 22.431 22.514C23.7929 21.1923 23.7929 19.0602 22.4734 17.7384ZM22.4734 17.7384L11.8325 7.07824C11.9177 6.73709 11.9177 6.3534 11.9177 5.96959C11.9177 2.68631 9.23621 0 5.95884 0C2.68147 0 0 2.68631 0 5.96959C0 9.25288 2.68147 11.9392 5.95884 11.9392C6.34195 11.9392 6.72496 11.8965 7.06549 11.8539L17.6638 22.514C18.9833 23.8358 21.1115 23.8358 22.431 22.514C23.7929 21.1923 23.7929 19.0602 22.4734 17.7384Z" transform="translate(31.0289 31.6422)" fill="#B7854E"/>
<path d="M0.425696 0.682295C1.66009 1.62042 3.02211 2.72907 3.83081 3.88027C4.93746 5.41527 5.78874 6.95038 6.64001 8.61335L6.76776 8.86918L7.02313 8.82653L8.0872 9.89252L7.19334 8.2722C6.29948 6.60923 5.49078 5.03157 4.34155 3.45381C3.44769 2.21719 1.95804 1.02333 0.681066 0.0425493C0.638486 0.255942 0.510856 0.469118 0.425696 0.682295ZM14.6845 14.5404C13.7056 12.5363 13.0245 10.7454 12.3861 9.12513C11.1517 5.8845 10.2153 3.53923 7.95946 2.51589C6.76765 2.00423 6.12927 1.91892 5.78874 2.34538C5.23541 2.98502 5.91648 4.30684 7.78925 7.20632L11.8327 13.5171C11.8753 13.5597 11.8753 13.6024 11.9179 13.6024C12.0456 13.6877 12.1733 13.6877 12.301 13.6024C12.4712 13.5171 12.5138 13.3039 12.3862 13.1334L8.34268 6.82263C7.70419 5.84195 6.04422 3.19819 6.29959 2.77184C6.29959 2.77184 6.51238 2.64387 7.66161 3.15564C9.66212 4.05111 10.5134 6.18309 11.7477 9.38118C12.3436 10.9588 13.0671 12.7924 14.0461 14.8391C14.3867 15.5639 14.642 16.1183 14.8548 16.63L16.0467 17.824C15.8336 17.0988 15.4081 16.0755 14.6845 14.5404ZM19.1962 19.6573C17.8767 17.1415 16.5147 14.5404 15.9188 12.9627C15.7486 12.5364 15.6209 12.0673 15.4506 11.5983C14.7271 9.46627 13.8332 6.86517 12.1733 4.4347L11.7902 4.0509V3.92293C10.6835 2.47313 9.2789 1.10865 7.44871 0H5.95895C11.705 2.68631 13.5353 8.05902 14.8122 11.8113C14.9824 12.323 15.1527 12.7495 15.2803 13.2185C15.8762 14.8388 17.2382 17.4825 18.5577 19.9983C18.6003 20.041 18.6003 20.0836 18.6429 20.1688C18.9408 20.2968 19.2388 20.382 19.5793 20.4247L19.1962 19.6573ZM4.76714 8.78398C5.02251 8.82664 5.32046 8.86929 5.61841 8.86929C4.29897 6.35351 2.89437 4.00835 0.0851629 2.08943C0.0425828 2.34527 0.0425801 2.6011 0 2.89959C2.29846 4.56256 3.57544 6.56668 4.76714 8.78398ZM11.1092 0.000109033H10.4281C10.8112 0.255942 11.1517 0.554434 11.4922 0.852925C11.407 0.554434 11.2794 0.255942 11.1092 0.000109033ZM20.9839 17.0562C20.2178 15.0094 20.005 13.4744 20.388 12.6642L19.8772 12.1526C19.4091 12.9627 19.2813 14.4552 20.3454 17.312C20.6859 18.1648 21.0689 19.1455 21.4946 20.1263C21.7074 20.041 21.9202 19.9131 22.0905 19.7425C21.7074 18.8898 21.3669 17.9943 20.9839 17.0562ZM23.3674 16.5872C23.3248 16.1608 23.1546 15.7344 22.9418 15.3505C22.6013 16.118 22.6013 17.3547 22.9418 18.8045C23.1972 18.3781 23.3674 17.8663 23.41 17.3973C23.3674 17.0988 23.3674 16.843 23.3674 16.5872ZM21.1115 20.2543C19.2388 16.1608 17.5362 11.7689 16.3018 8.52814L15.11 7.33418L15.408 8.10168C17.0253 12.3231 18.6853 16.5871 20.4305 20.4248C20.6859 20.3821 20.8987 20.3396 21.1115 20.2543Z" transform="translate(31.0713 34.7121)" fill="#BE8D54"/>
<path d="M21.7073 21.7892C22.4309 20.51 22.2606 18.847 21.154 17.7384L10.5557 7.07824C10.6408 6.73709 10.6408 6.3534 10.6408 5.96959C10.6408 2.68631 7.95935 0 4.68198 0C3.36253 0 2.17072 0.426353 1.14923 1.15131C0.425693 2.17464 0 3.41126 0 4.73308C0 8.01637 2.68147 10.7027 5.95884 10.7027C6.34195 10.7027 6.72496 10.66 7.06549 10.6174L17.6638 21.2775C18.7704 22.3435 20.4304 22.5141 21.7073 21.7892Z" transform="translate(32.3483 31.6422)" fill="#CC9357"/>
<path d="M1.48976 5.62866C2.00051 6.18298 2.59642 6.652 3.2349 6.99314C2.4262 5.67132 1.48976 4.39204 0.212901 3.24084C0.383113 3.96569 0.723647 4.60533 1.14934 5.20231C1.14923 5.2022 1.48976 5.62866 1.48976 5.62866ZM19.7069 17.0988C18.9408 15.0521 18.728 13.5171 19.111 12.7069L18.6003 12.1952C18.1321 13.0054 18.0044 14.4978 19.0684 17.3547C19.2812 17.909 19.5366 18.5486 19.792 19.1882C20.0473 19.1882 20.3027 19.1882 20.5155 19.1455C20.2602 18.506 20.0049 17.7811 19.7069 17.0988ZM22.0904 16.6298C22.0479 16.2035 21.8776 15.777 21.6648 15.3932C21.3243 16.118 21.3243 17.3547 21.6223 18.7618C21.6223 18.7618 21.6648 18.7618 21.6648 18.7191C21.9202 18.2928 22.048 17.781 22.0904 17.312V16.6298ZM0 1.40724C0.97891 2.17475 1.91535 3.07022 2.55384 3.92303C3.44769 5.11699 4.12865 6.31085 4.80972 7.54747C5.06509 7.59012 5.36304 7.63278 5.66099 7.63278C4.89488 6.22564 4.12876 4.86116 3.14974 3.49668C2.38362 2.47335 1.23439 1.4499 0.127741 0.597087C0.0425809 0.852921 0.0425801 1.10875 0 1.40724ZM15.0249 8.5708L13.8331 7.37684L14.1311 8.14434C15.4931 11.7261 16.9403 15.3932 18.4299 18.7191C18.7279 18.8897 19.0259 19.0176 19.3238 19.0603C17.6213 15.3507 16.1316 11.513 15.0249 8.5708ZM9.83222 0.042764H9.15116C9.53427 0.298597 9.8747 0.597089 10.2152 0.89558C10.1301 0.597089 10.0024 0.298597 9.83222 0.042764ZM14.6844 12.9627C14.5142 12.5364 14.3865 12.0673 14.2162 11.5983C13.4927 9.46627 12.5989 6.86517 10.9389 4.4347L10.5558 4.05089V3.92292C9.44911 2.47313 8.04451 1.10865 6.21432 0H4.68208C10.4281 2.68631 12.2584 8.05902 13.5353 11.8113C13.7055 12.323 13.8758 12.7495 14.0035 13.2185C14.2162 13.8581 14.5994 14.6683 15.0249 15.5637L16.5572 17.0987C15.7485 15.5212 15.0249 14.0288 14.6844 12.9627ZM6.68249 2.55855C5.49067 2.04688 4.8523 1.96157 4.51177 2.38803C3.95844 3.02767 4.6395 4.34949 6.51227 7.24897L6.72506 7.59012L7.0656 7.54747L8.29999 8.78409L7.0656 6.86528C6.42711 5.8846 4.76714 3.24085 5.02251 2.81449C5.02251 2.81449 5.2353 2.68652 6.38453 3.1983C8.38504 4.09377 9.23632 6.22575 10.4706 9.42383C10.7686 10.234 11.1091 11.0868 11.4921 11.9823L12.8115 13.3041C12.1305 11.7691 11.5771 10.4045 11.109 9.168C9.8747 5.92715 8.93837 3.58188 6.68249 2.55855Z" transform="translate(32.3482 34.6695)" fill="#D49D5E"/>
<path d="M17.8766 0C27.7513 0 35.7532 8.01637 35.7532 17.9089C35.7532 27.8014 27.7513 35.8179 17.8766 35.8179C8.00193 35.8179 0 27.8014 0 17.9089C0 8.01637 8.00193 0 17.8766 0Z" transform="translate(4.25641 4.82145)" fill="#B4E7F8"/>
<path d="M13.45 0C8.08698 0 3.27737 2.38781 0 6.14022C3.14974 3.3686 7.23581 1.70563 11.7476 1.70563C21.6223 1.70563 29.6242 9.722 29.6242 19.6145C29.6242 24.1344 27.9642 28.2279 25.1976 31.3833C28.9431 28.1 31.3267 23.2816 31.3267 17.909C31.3266 8.01637 23.3247 0 13.45 0Z" transform="translate(8.68298 4.82145)" fill="#A6D5E5"/>
<path d="M22.133 0C9.91728 0 0 9.93517 0 22.173C0 34.4107 9.91728 44.3459 22.133 44.3459C34.3488 44.3459 44.266 34.4107 44.266 22.173C44.266 9.93517 34.3488 0 22.133 0ZM22.133 39.6555C12.5137 39.6555 4.68198 31.8096 4.68198 22.173C4.68198 12.5363 12.5137 4.69042 22.133 4.69042C31.7523 4.69042 39.584 12.5363 39.584 22.173C39.584 31.8096 31.7523 39.6555 22.133 39.6555ZM22.133 0C9.91728 0 0 9.93517 0 22.173C0 34.4107 9.91728 44.3459 22.133 44.3459C34.3488 44.3459 44.266 34.4107 44.266 22.173C44.266 9.93517 34.3488 0 22.133 0ZM22.133 39.6555C12.5137 39.6555 4.68198 31.8096 4.68198 22.173C4.68198 12.5363 12.5137 4.69042 22.133 4.69042C31.7523 4.69042 39.584 12.5363 39.584 22.173C39.584 31.8096 31.7523 39.6555 22.133 39.6555Z" transform="translate(0 0.557377)" fill="#3C5663"/>
</svg>
