<svg width="60" height="77" viewBox="0 0 60 77" fill="none" xmlns="http://www.w3.org/2000/svg">
<path d="M56.4 0H3.6C1.6149 0 0 1.6149 0 3.6V72C0 73.9851 1.6149 75.6 3.6 75.6H56.4C58.3851 75.6 60 73.9851 60 72V3.6C60 1.6149 58.3851 0 56.4 0Z" transform="translate(0 1.2)" fill="#FF4F19"/>
<path d="M5.96715 0H3.6C1.6149 0 0 1.6149 0 3.6V72C0 73.9851 1.6149 75.6 3.6 75.6H5.96715V0Z" transform="translate(0 1.2)" fill="#E3001E"/>
<path d="M13.2 0H1.2C0.5373 0 0 0.5373 0 1.2V19.1994C0 19.6318 0.232049 20.0308 0.608249 20.2435C0.984449 20.4569 1.44615 20.4522 1.8177 20.2282L7.2 16.9987L12.5824 20.2284C12.7724 20.3427 12.9867 20.3995 13.2 20.3995C13.4039 20.3995 13.6079 20.3479 13.7918 20.2437C14.168 20.031 14.4 19.632 14.4 19.1996V1.2C14.4 0.5373 13.8627 0 13.2 0Z" transform="translate(38.4)" fill="#5D647F"/>
<path d="M1.2 66C0.5367 66 0 65.4627 0 64.8V1.2C0 0.5373 0.5367 0 1.2 0C1.8633 0 2.4 0.5373 2.4 1.2V64.8C2.4 65.4627 1.8633 66 1.2 66Z" transform="translate(4.79999 6)" fill="#C10019"/>
<path d="M25.8 25.2H25.7142C25.7036 25.1592 25.7016 25.1182 25.6887 25.0776L18.8969 3.57015C19.7487 3.42795 20.4 2.69265 20.4 1.8C20.4 0.80565 19.5938 0 18.6 0H9C8.00625 0 7.2 0.80565 7.2 1.8C7.2 2.69265 7.85145 3.42795 8.70315 3.57015L1.9113 25.0776C1.8984 25.1182 1.8963 25.1592 1.8858 25.2H1.8C0.80625 25.2 0 26.0057 0 27C0 27.9944 0.80625 28.8 1.8 28.8H6.6C7.59375 28.8 8.4 27.9944 8.4 27C8.4 26.1074 7.7487 25.3721 6.89685 25.2299L8.2326 21H19.3672L20.703 25.2299C19.8513 25.3721 19.1998 26.1074 19.1998 27C19.1998 27.9944 20.0061 28.8 20.9998 28.8H25.7998C26.7936 28.8 27.5998 27.9944 27.5998 27C27.5998 26.0057 26.7937 25.2 25.8 25.2ZM9.74835 16.2L13.6887 3.7224C13.7016 3.68175 13.7037 3.6408 13.7142 3.6H13.8858C13.8964 3.6408 13.8984 3.68175 13.9113 3.7224L17.8516 16.2H9.74835Z" transform="translate(19.1672 26.4)" fill="#FFCD00"/>
</svg>
