<svg width="47" height="56" viewBox="0 0 47 56" fill="none" xmlns="http://www.w3.org/2000/svg">
<path d="M46.3555 20.5331C46.3555 9.19265 37.1178 0 25.7318 0C16.0215 0 7.85793 6.70119 5.70965 15.7221V15.808C5.58071 16.4094 5.45187 16.9678 5.3659 17.5693C5.19408 18.4284 4.93629 19.3735 4.63552 19.846C3.04581 22.5951 0.253008 27.4063 0.253008 27.4063C-0.262568 28.2654 0.0382028 29.3823 0.897533 29.8977L5.19419 32.4752V41.5819C5.19419 42.5269 5.96755 43.3001 6.91285 43.3001H14.9905V53.1801C14.9905 54.1252 15.7638 54.9414 16.7091 54.9414L35.1846 48.6268C36.0869 48.3261 36.9032 47.8536 36.9032 46.8656V37.6729C42.4886 34.0214 46.3555 27.7069 46.3555 20.5331Z" transform="translate(0 0.689651)" fill="#F2F2F2"/>
<path d="M12.0198 6.6045C12.0628 6.26083 12.0628 5.91715 12.0198 5.61656L11.0316 5.35883L10.7738 4.24196L11.5042 3.51175C11.3752 3.21104 11.2034 2.91034 10.9886 2.65261L10.0005 2.91034L9.22709 2.09418L9.48487 1.10623C9.22708 0.934448 8.92632 0.762555 8.62554 0.590771L7.93804 1.32099L6.8639 1.02028L6.606 0.0322299H6.52004C6.21926 -0.0107433 5.91849 -0.0107433 5.57474 0.0322299L5.31695 1.02018L4.24281 1.32088L3.51243 0.590662C3.21166 0.719582 2.91089 0.891366 2.6531 1.10612L2.91089 2.09407L2.09454 2.86726L1.10637 2.60953C0.93455 2.86726 0.762619 3.16796 0.590796 3.46866L1.32118 4.19888L1.02041 5.27277L0.0322372 5.48753C-0.0107457 5.83121 -0.0107457 6.17488 0.0322372 6.47548L1.02041 6.7332L1.32118 7.8071L0.590796 8.53731C0.719745 8.83802 0.891567 9.13872 1.10637 9.39645L2.09454 9.13872L2.86791 9.95488L2.61012 10.9428C2.86791 11.1146 3.16868 11.2865 3.46945 11.4583L4.19983 10.7281L5.27397 11.0288L5.53176 12.0167H5.61772C5.91849 12.0597 6.21926 12.0597 6.56302 12.0167L6.82081 11.0288L7.89494 10.7281L8.62532 11.4583C8.9261 11.3294 9.22687 11.1576 9.48466 10.9858L9.22687 9.99786L10.0432 9.22467L11.0314 9.48239C11.2032 9.22466 11.3751 8.92396 11.547 8.62326L10.7736 7.93591L11.0744 6.86202L12.0198 6.6045ZM6.82092 8.96715C5.2312 9.39667 3.55552 8.45169 3.1258 6.81937C2.69619 5.23002 3.64138 3.55472 5.27408 3.1251C6.86379 2.69558 8.53947 3.64056 8.96919 5.27288C9.3988 6.86234 8.45361 8.53764 6.82092 8.96715Z" transform="translate(15.8173 6.24174)" fill="#415F6F"/>
<path d="M14.3076 8.33352L15.5537 7.904C15.5537 7.47449 15.5537 7.04487 15.4677 6.61535L14.1788 6.35763L13.7062 4.98303L14.5655 3.99508C14.3507 3.60843 14.1359 3.26487 13.8351 2.92119L12.5891 3.35071L11.5149 2.40562L11.7727 1.11697C11.386 0.902217 10.9994 0.687461 10.6126 0.558541L9.7533 1.54649L8.33541 1.24579L7.9058 0C7.47619 0 7.04647 -6.11095e-07 6.61686 0.0859457L6.35907 1.3746L4.98416 1.84708L3.99599 0.987945C3.60925 1.2027 3.26561 1.41746 2.92185 1.71816L3.35146 2.96395L2.40617 4.03784L1.11723 3.78011C0.902422 4.16676 0.687617 4.5533 0.558669 4.93995L1.54684 5.79908L1.24607 7.21665L0 7.64616C0 8.07568 -6.11234e-07 8.5053 0.0859652 8.93481L1.37491 9.19254L1.8475 10.5671L0.988168 11.5551C1.20297 11.9417 1.41778 12.2853 1.71855 12.629L2.96462 12.1995L4.03876 13.1445L3.78097 14.4332C4.1677 14.648 4.55433 14.8627 4.94107 14.9916L5.8004 14.0037L7.21829 14.3044L7.6479 15.5502C8.07751 15.5502 8.50723 15.5502 8.93684 15.4642L9.19463 14.1756L10.5695 13.7031L11.5577 14.5622C11.9444 14.3475 12.2881 14.1327 12.6318 13.832L12.2022 12.5862L13.1475 11.5123L14.4365 11.7701C14.6513 11.3834 14.8661 10.9969 14.995 10.6102L14.0069 9.75108L14.3076 8.33352ZM7.81972 11.5983C5.67145 11.5983 3.95279 9.88 3.95279 7.73222C3.95279 5.58444 5.67145 3.86616 7.81972 3.86616C9.96799 3.86616 11.6867 5.58444 11.6867 7.73222C11.6867 9.88 9.9681 11.5983 7.81972 11.5983Z" transform="translate(26.0756 14.0061)" fill="#E2574C"/>
<path d="M12.2884 7.56033C12.3744 7.21665 12.4174 6.87298 12.4174 6.52941L11.4292 6.0999L11.3002 4.94006L12.1596 4.29568C12.0736 3.952 11.9448 3.6513 11.7728 3.3506L10.6987 3.52238L10.0112 2.5773L10.4408 1.58935L10.3978 1.54638C10.14 1.33162 9.88225 1.11687 9.62446 0.944973L8.76513 1.58935L7.69099 1.15984L7.56204 0.128919C7.21829 0.0429722 6.87453 0 6.53089 0L6.14415 0.945081L4.98405 1.074L4.33953 0.214866C3.99577 0.300812 3.695 0.429622 3.39423 0.601515L3.52318 1.63243L2.57788 2.31979L1.58971 1.89027C1.33192 2.148 1.1601 2.40573 0.945186 2.70643L1.58971 3.56557L1.1601 4.68244L0.128948 4.81136C0.042982 5.15503 0 5.49871 0 5.84228L0.98817 6.27179L1.11712 7.43163L0.257787 8.07601C0.343753 8.41968 0.472593 8.72038 0.644524 9.02109L1.67568 8.89217L2.36318 9.83725L1.93358 10.8252L1.97656 10.8682C2.23435 11.0829 2.49214 11.2977 2.74992 11.4696L3.60925 10.8252L4.68339 11.2977L4.81234 12.3286C5.15609 12.4145 5.49985 12.4575 5.84349 12.4575L6.23023 11.5124L7.39033 11.3835L8.03486 12.2427C8.37861 12.1567 8.67938 12.0279 8.98015 11.856L8.89419 10.6962L9.83948 10.0088L10.8277 10.4383C11.0854 10.1806 11.2573 9.92287 11.4722 9.62217L10.8277 8.76303L11.3002 7.68914C11.3001 7.68914 12.2884 7.56033 12.2884 7.56033ZM9.2807 7.04476C8.80811 8.76303 7.04647 9.79395 5.32781 9.32146C3.60914 8.84898 2.57799 7.08773 3.05059 5.36946C3.52318 3.65119 5.28482 2.62027 7.00348 3.09276C8.72214 3.52238 9.75341 5.3266 9.2807 7.04476Z" transform="translate(12.8848 19.2039)" fill="#638090"/>
</svg>
