<svg width="53" height="53" viewBox="0 0 53 53" fill="none" xmlns="http://www.w3.org/2000/svg">
<path d="M0 13.0687L26.3077 0L52.6154 13.0686V14.7947L26.3077 27.8634L0 14.8359V13.0687Z" transform="translate(0 0.0275879)" fill="#EFC75E"/>
<path d="M0 0L26.3077 13.0686L52.6154 0V26.1784L26.2254 39.247L0 26.1785V0Z" transform="translate(0 13.0963)" fill="#E7BF55"/>
<path d="M26.3077 39.1239V12.9866L0.164383 0H0V26.0962L26.2254 39.1648L26.3077 39.1239Z" transform="translate(0 13.1784)" fill="#DBB551"/>
<path d="M0 2.63005L26.2666 15.6987L31.6103 13.0685L5.2615 0L0 2.63005Z" transform="translate(10.7286 5.16476)" fill="#F7E3AF"/>
<path d="M0 2.63015L5.34374 0V8.21925L3.905 7.97268L2.38412 9.82201L0 9.65766C0 9.65756 0 2.63015 0 2.63015Z" transform="translate(36.9952 18.2334)" fill="#F1D999"/>
<path d="M9.78322 4.52643L0.904365 0.0880578C0.411113 -0.158512 0 0.12917 0 0.745648V6.70465C0 7.32113 0.411009 8.01973 0.904365 8.2663L9.82434 12.7047C10.3176 12.9512 10.7287 12.6636 10.7287 12.0471V6.04696C10.6875 5.43048 10.2765 4.7731 9.78322 4.52643ZM7.76898 9.41692L2.09637 6.58132C1.84975 6.45798 1.64424 6.08817 1.64424 5.75938C1.64424 5.43058 1.84975 5.26624 2.09637 5.38947L7.76898 8.22508C8.01561 8.34842 8.22111 8.71822 8.22111 9.04702C8.22111 9.37581 8.01561 9.54016 7.76898 9.41692ZM8.59111 7.36203L2.09637 4.07429C1.84975 3.95096 1.64424 3.58115 1.64424 3.25236C1.64424 2.92356 1.84975 2.75922 2.09637 2.88245L8.59111 6.17019C8.83773 6.29353 9.04324 6.66333 9.04324 6.99213C9.04334 7.36204 8.83773 7.48527 8.59111 7.36203Z" transform="translate(11.0985 32.077)" fill="#F2F2F2"/>
</svg>
