<svg width="214" height="45" viewBox="0 0 214 45" fill="none" xmlns="http://www.w3.org/2000/svg">
<path fill-rule="evenodd" clip-rule="evenodd" d="M8.1075 9.37108C8.86479 9.37108 9.46463 9.12802 9.90326 8.66736C10.3419 8.19579 10.5601 7.59249 10.5601 6.85311C10.5601 6.07734 10.3524 5.46022 9.937 4.98792C9.52386 4.52144 8.89328 4.27837 8.07601 4.27837H5.45473V9.37108H8.1075ZM0 0H8.58137C9.71881 0 10.74 0.144092 11.654 0.441737C12.5665 0.738654 13.3516 1.16802 14.0001 1.72692C14.6577 2.28801 15.1616 2.99246 15.5185 3.83664C15.8746 4.69027 16.0486 5.66326 16.0486 6.76505C16.0486 7.80499 15.8709 8.74887 15.5012 9.59668C15.1331 10.4365 14.6269 11.1664 13.9866 11.7704C13.3403 12.3715 12.5815 12.8293 11.6885 13.1502C10.788 13.461 9.80428 13.616 8.73808 13.616H5.45473V20.4174H0V0Z" transform="translate(0.133606 0.000610352)" fill="white"/>
<path fill-rule="evenodd" clip-rule="evenodd" d="M8.16599 9.21244C8.89854 9.21244 9.50287 8.9912 9.96474 8.55965C10.4266 8.11501 10.6538 7.52699 10.6538 6.79489C10.6538 6.01621 10.4386 5.40636 9.99398 4.95662C9.55386 4.50906 8.93978 4.2791 8.13075 4.2791H5.45474V9.21244H8.16599ZM0 0H8.70059C9.83803 0 10.8667 0.144092 11.7792 0.427182C12.6895 0.713183 13.4745 1.136 14.1276 1.69781C14.7784 2.26108 15.283 2.96117 15.6407 3.79224C15.9976 4.6306 16.176 5.6014 16.176 6.70101C16.176 8.04733 15.8694 9.2168 15.2538 10.2087C14.6479 11.1984 13.8472 11.9858 12.8342 12.5782L17.3389 20.4174H11.3474L7.78734 13.4682H5.45474V20.4174H0V0Z" transform="translate(17.0721 0.000488281)" fill="white"/>
<path fill-rule="evenodd" clip-rule="evenodd" d="M0 0H15.1368V4.67936H5.57846V7.83337H13.4318V12.2442H5.57846V15.7279H15.7981V20.4181H0V0Z" transform="translate(34.9825 0.000244141)" fill="white"/>
<path fill-rule="evenodd" clip-rule="evenodd" d="M0 0H14.6697V4.74194H5.58595V8.69356H12.6153V13.1597H5.58595V20.4181H0V0Z" transform="translate(51.7884 0.000244141)" fill="white"/>
<path fill-rule="evenodd" clip-rule="evenodd" d="M0 0H15.1361V4.67936H5.58671V7.83337H13.437V12.2442H5.58671V15.7279H15.8056V20.4181H0V0Z" transform="translate(67.7142 0.000244141)" fill="white"/>
<path fill-rule="evenodd" clip-rule="evenodd" d="M0 20.4181H5.58671V0H0V20.4181Z" transform="translate(84.5255 0.000488281)" fill="white"/>
<path fill-rule="evenodd" clip-rule="evenodd" d="M6.46396 4.74194H0V0H18.5131V4.74194H12.1069V20.4181H6.46396V4.74194Z" transform="translate(91.3708)" fill="white"/>
<path fill-rule="evenodd" clip-rule="evenodd" d="M0 0H5.57846V11.9698C5.57846 13.0898 5.84838 14.0082 6.38298 14.7243C6.91983 15.4331 7.81434 15.7897 9.0485 15.7897C10.2894 15.7897 11.1734 15.428 11.6968 14.7039C12.2254 13.9806 12.484 13.0687 12.484 11.9698V0H18.136V12.4581C18.136 13.7623 17.914 14.939 17.4724 15.9928C17.0375 17.0436 16.4062 17.9344 15.5904 18.6745C14.7837 19.4059 13.8284 19.9677 12.7247 20.3577C11.6195 20.7427 10.4049 20.9327 9.07924 20.9327C7.75736 20.9327 6.5412 20.7427 5.42251 20.3577C4.30532 19.9677 3.34783 19.411 2.53805 18.6898C1.72978 17.9613 1.1022 17.0742 0.665072 16.0219C0.221945 14.971 0 13.787 0 12.4581V0Z" transform="translate(111.019 0.000244141)" fill="white"/>
<path fill-rule="evenodd" clip-rule="evenodd" d="M8.16449 9.21244C8.90679 9.21244 9.50136 8.9912 9.96548 8.55965C10.4296 8.11501 10.6568 7.52699 10.6568 6.79489C10.6568 6.01621 10.4416 5.40636 9.99472 4.95662C9.55459 4.50906 8.93226 4.2791 8.13898 4.2791H5.45997V9.21244H8.16449ZM0 0H8.70583C9.84102 0 10.8667 0.144092 11.7762 0.427182C12.6977 0.713183 13.4798 1.136 14.1223 1.69781C14.7769 2.26108 15.2853 2.96117 15.6414 3.79224C15.9968 4.6306 16.1783 5.6014 16.1783 6.70101C16.1783 8.04733 15.8686 9.2168 15.2673 10.2087C14.6547 11.1984 13.8434 11.9858 12.8357 12.5782L17.3442 20.4174H11.3504L7.79033 13.4682H5.45997V20.4174H0V0Z" transform="translate(130.918 0.000488281)" fill="white"/>
<path fill-rule="evenodd" clip-rule="evenodd" d="M13.0546 12.2442L10.7198 4.74121L8.28746 12.2442H13.0546ZM7.71985 0H14.1253L21.5685 20.4174H15.5462L14.1853 16.1922H7.15902L5.77039 20.4174H0L7.71985 0Z" transform="translate(147.257 0.000488281)" fill="white"/>
<path fill-rule="evenodd" clip-rule="evenodd" d="M7.85332 15.6391C9.67982 15.6391 11.0924 15.1348 12.0979 14.1283C13.0936 13.1117 13.593 11.8039 13.593 10.1934C13.593 9.37691 13.4798 8.63825 13.2496 7.97383C13.0179 7.31013 12.6632 6.74322 12.1901 6.25636C11.7163 5.77824 11.1232 5.40637 10.4086 5.14001C9.69856 4.87657 8.84005 4.74194 7.85332 4.74194H5.58669V15.6391H7.85332ZM0 0H8.07601C9.69856 0 11.1921 0.205222 12.565 0.608389C13.9454 1.02029 15.1436 1.64323 16.149 2.47868C17.1545 3.31703 17.947 4.38899 18.5094 5.69528C19.0852 6.9972 19.3671 8.53637 19.3671 10.3128C19.3671 12.0099 19.0755 13.4843 18.4981 14.7396C17.9118 15.9928 17.129 17.0436 16.1145 17.8914C15.1106 18.7393 13.9071 19.3709 12.5223 19.7865C11.1337 20.21 9.64008 20.4181 8.04377 20.4181H0V0Z" transform="translate(175.781 0.00012207)" fill="white"/>
<path fill-rule="evenodd" clip-rule="evenodd" d="M0 0H15.1361V4.67936H5.58521V7.83337H13.4348V12.2442H5.58521V15.7279H15.8011V20.4181H0V0Z" transform="translate(195.842 0.000244141)" fill="white"/>
<path fill-rule="evenodd" clip-rule="evenodd" d="M0 0H14.6659V4.74703H5.58296V8.69501H12.616V13.1699H5.58296V20.4232H0V0Z" transform="translate(0 23.4041)" fill="white"/>
<path fill-rule="evenodd" clip-rule="evenodd" d="M0 0H5.58145V15.6449H15.3288V20.4232H0V0Z" transform="translate(15.4674 23.4041)" fill="white"/>
<path fill-rule="evenodd" clip-rule="evenodd" d="M10.9455 16.3828C11.7665 16.3828 12.496 16.2286 13.1356 15.936C13.7752 15.6376 14.318 15.2337 14.7567 14.7243C15.2043 14.2091 15.5342 13.6116 15.7719 12.9152C15.9968 12.2216 16.1138 11.4866 16.1138 10.7108C16.1138 9.93435 15.9968 9.19934 15.7719 8.51235C15.5342 7.81227 15.2043 7.21552 14.7567 6.70028C14.318 6.19378 13.7752 5.78843 13.1356 5.49297C12.496 5.19823 11.7665 5.04905 10.9455 5.04905C10.1244 5.04905 9.3934 5.19823 8.75308 5.49297C8.10976 5.78843 7.5684 6.19378 7.12528 6.70028C6.68515 7.21552 6.34549 7.81227 6.1183 8.51235C5.88737 9.19934 5.77415 9.93435 5.77415 10.7108C5.77415 11.4866 5.88737 12.2216 6.1183 12.9152C6.34549 13.6116 6.68515 14.2091 7.12528 14.7243C7.5684 15.2337 8.10976 15.6376 8.75308 15.936C9.3934 16.2286 10.1244 16.3828 10.9455 16.3828ZM10.9455 21.4581C9.36641 21.4581 7.90881 21.1866 6.57867 20.6467C5.24179 20.1038 4.08637 19.3571 3.11089 18.4096C2.12866 17.4613 1.36762 16.3283 0.819525 15.0103C0.274426 13.6989 0 12.2675 0 10.7108C0 9.15931 0.274426 7.72785 0.819525 6.4121C1.36762 5.09271 2.12866 3.96253 3.11089 3.01429C4.08637 2.06168 5.24179 1.32375 6.57867 0.792504C7.90881 0.264894 9.36641 0 10.9455 0C12.5193 0 13.9821 0.264894 15.3295 0.792504C16.6716 1.32375 17.8301 2.06168 18.7958 3.01429C19.7638 3.96253 20.5211 5.09271 21.0647 6.4121C21.615 7.72785 21.8902 9.15931 21.8902 10.7108C21.8902 12.2675 21.615 13.6989 21.0647 15.0103C20.5211 16.3283 19.7638 17.4613 18.7958 18.4096C17.8301 19.3571 16.6716 20.1038 15.3295 20.6467C13.9821 21.1866 12.5193 21.4581 10.9455 21.4581Z" transform="translate(27.9251 22.8588)" fill="white"/>
<path fill-rule="evenodd" clip-rule="evenodd" d="M8.16824 9.21971C8.90603 9.21971 9.50511 9.00139 9.96474 8.5662C10.4289 8.12156 10.6553 7.53427 10.6553 6.80217C10.6553 6.02058 10.4386 5.41292 10.003 4.96317C9.55684 4.51853 8.93677 4.2922 8.136 4.2922H5.45549V9.21971H8.16824ZM0 0H8.70583C9.83952 0 10.8667 0.147002 11.7792 0.436642C12.6917 0.719732 13.4775 1.14473 14.1298 1.70582C14.7822 2.26618 15.283 2.96408 15.6437 3.80025C15.9968 4.63933 16.182 5.60795 16.182 6.70756C16.182 8.05315 15.8709 9.21971 15.2635 10.2123C14.6547 11.2057 13.8449 11.9924 12.8372 12.5855L17.3449 20.424H11.3511L7.79109 13.4712H5.45549V20.424H0V0Z" transform="translate(50.2541 23.4033)" fill="white"/>
<path fill-rule="evenodd" clip-rule="evenodd" d="M0 20.4232H5.57696V0H0V20.4232Z" transform="translate(67.5396 23.4038)" fill="white"/>
<path fill-rule="evenodd" clip-rule="evenodd" d="M13.0509 12.2515L10.7183 4.74776L8.29645 12.2515H13.0509ZM7.72211 0H14.1283L21.5685 20.424H15.5439L14.1898 16.1994H7.15602L5.7689 20.424H0L7.72211 0Z" transform="translate(73.4359 23.4033)" fill="white"/>
<path fill-rule="evenodd" clip-rule="evenodd" d="M0 0H5.07684L13.1491 11.3956V0H18.6691V20.4232H13.9064L5.51923 8.69501V20.4232H0V0Z" transform="translate(94.6891 23.4041)" fill="white"/>
<path fill-rule="evenodd" clip-rule="evenodd" d="M10.8817 0H15.6534L12.3528 4.04331H8.93003L10.8817 0ZM10.935 18.7786C11.7642 18.7786 12.4945 18.625 13.1364 18.3303C13.7729 18.0319 14.3135 17.6295 14.7529 17.1186C15.2005 16.6033 15.5342 16.0073 15.7681 15.3109C16.0006 14.6181 16.1115 13.8823 16.1115 13.1058C16.1115 12.3293 16.0006 11.595 15.7681 10.9073C15.5342 10.2065 15.2005 9.61124 14.7529 9.096C14.3135 8.58949 13.7729 8.18414 13.1364 7.88941C12.4945 7.59395 11.7642 7.44403 10.935 7.44403C10.1229 7.44403 9.39265 7.59395 8.75383 7.88941C8.10826 8.18414 7.57215 8.58949 7.12527 9.096C6.68364 9.61124 6.34624 10.2065 6.11606 10.9073C5.88737 11.595 5.77115 12.3293 5.77115 13.1058C5.77115 13.8823 5.88737 14.6181 6.11606 15.3109C6.34624 16.0073 6.68364 16.6033 7.12527 17.1186C7.57215 17.6295 8.10826 18.0319 8.75383 18.3303C9.39265 18.625 10.1229 18.7786 10.935 18.7786ZM10.935 23.8523C9.36491 23.8523 7.9118 23.5809 6.57417 23.0424C5.24254 22.5002 4.08262 21.7528 3.11239 20.806C2.13016 19.8571 1.36612 18.724 0.821024 17.406C0.270676 16.0939 0 14.6617 0 13.1058C0 11.5558 0.270676 10.1236 0.821024 8.80781C1.36612 7.48842 2.13016 6.35679 3.11239 5.41001C4.08262 4.4574 5.24254 3.71801 6.57417 3.18895C7.9118 2.65915 9.36491 2.39644 10.935 2.39644C12.5178 2.39644 13.9814 2.65915 15.3243 3.18895C16.6656 3.71801 17.8286 4.4574 18.7943 5.41001C19.7668 6.35679 20.5218 7.48842 21.0654 8.80781C21.6143 10.1236 21.8872 11.5558 21.8872 13.1058C21.8872 14.6617 21.6143 16.0939 21.0654 17.406C20.5218 18.724 19.7668 19.8571 18.7943 20.806C17.8286 21.7528 16.6656 22.5002 15.3243 23.0424C13.9814 23.5809 12.5178 23.8523 10.935 23.8523Z" transform="translate(113.802 20.4633)" fill="white"/>
<path fill-rule="evenodd" clip-rule="evenodd" d="M8.10676 9.36817C8.86405 9.36817 9.45789 9.13821 9.90402 8.67173C10.3471 8.20088 10.5638 7.59176 10.5638 6.85966C10.5638 6.08462 10.3561 5.46677 9.93475 4.99665C9.51337 4.5258 8.89479 4.29293 8.07752 4.29293H5.45625V9.36817H8.10676ZM0 0H8.58062C9.71281 0 10.7363 0.152099 11.6525 0.451927C12.571 0.745933 13.3478 1.17821 14.0054 1.7342C14.6585 2.29674 15.1623 2.99901 15.52 3.84391C15.8776 4.69755 16.0508 5.6669 16.0508 6.76869C16.0508 7.81227 15.8679 8.75469 15.4997 9.59959C15.1361 10.4467 14.6367 11.1759 13.9911 11.7726C13.3471 12.3737 12.5838 12.8307 11.6863 13.1546C10.7903 13.4712 9.80954 13.6254 8.74034 13.6254H5.45625V20.4247H0V0Z" transform="translate(135.528 23.4034)" fill="white"/>
<path fill-rule="evenodd" clip-rule="evenodd" d="M10.9455 16.3828C11.768 16.3828 12.4983 16.2286 13.1304 15.936C13.7737 15.6376 14.3225 15.2337 14.7642 14.7243C15.2035 14.2091 15.5372 13.6116 15.7734 12.9152C16.0051 12.2216 16.1205 11.4866 16.1205 10.7108C16.1205 9.93435 16.0051 9.19934 15.7734 8.51235C15.5372 7.81227 15.2035 7.21552 14.7642 6.70028C14.3225 6.19378 13.7737 5.78843 13.1304 5.49297C12.4983 5.19823 11.768 5.04905 10.9455 5.04905C10.1252 5.04905 9.39641 5.19823 8.75308 5.49297C8.11201 5.78843 7.56691 6.19378 7.12378 6.70028C6.68665 7.21552 6.34924 7.81227 6.12055 8.51235C5.88961 9.19934 5.77041 9.93435 5.77041 10.7108C5.77041 11.4866 5.88961 12.2216 6.12055 12.9152C6.34924 13.6116 6.68665 14.2091 7.12378 14.7243C7.56691 15.2337 8.11201 15.6376 8.75308 15.936C9.39641 16.2286 10.1252 16.3828 10.9455 16.3828ZM10.9455 21.4581C9.36867 21.4581 7.91482 21.1866 6.57794 20.6467C5.23956 20.1038 4.08863 19.3571 3.1079 18.4096C2.13317 17.4613 1.37438 16.3283 0.822534 15.0103C0.276685 13.6989 0 12.2675 0 10.7108C0 9.15931 0.276685 7.72785 0.822534 6.4121C1.37438 5.09271 2.13317 3.96253 3.1079 3.01429C4.08863 2.06168 5.23956 1.32375 6.57794 0.792504C7.91482 0.264894 9.36867 0 10.9455 0C12.523 0 13.9881 0.264894 15.3235 0.792504C16.6724 1.32375 17.8308 2.06168 18.7973 3.01429C19.7668 3.96253 20.5241 5.09271 21.0722 6.4121C21.6135 7.72785 21.888 9.15931 21.888 10.7108C21.888 12.2675 21.6135 13.6989 21.0722 15.0103C20.5241 16.3283 19.7668 17.4613 18.7973 18.4096C17.8308 19.3571 16.6724 20.1038 15.3235 20.6467C13.9881 21.1866 12.523 21.4581 10.9455 21.4581Z" transform="translate(151.642 22.8588)" fill="white"/>
<path fill-rule="evenodd" clip-rule="evenodd" d="M0 0H5.58448V15.6449H15.3235V20.4232H0V0Z" transform="translate(173.973 23.4041)" fill="white"/>
<path fill-rule="evenodd" clip-rule="evenodd" d="M0 20.4232H5.58294V0H0V20.4232Z" transform="translate(189.929 23.4038)" fill="white"/>
<path fill-rule="evenodd" clip-rule="evenodd" d="M3.37855 14.5045C3.96489 15.0773 4.72969 15.5983 5.67518 16.0663C6.62592 16.54 7.66362 16.7714 8.7988 16.7714C9.07248 16.7714 9.35365 16.7511 9.64831 16.6972C9.94673 16.6426 10.2077 16.5531 10.4341 16.4411C10.6703 16.3122 10.8592 16.1529 11.0062 15.9447C11.1494 15.7395 11.2274 15.4739 11.2274 15.1551C11.2274 14.6166 10.9515 14.1843 10.3914 13.8343C9.83351 13.485 9.01775 13.1466 7.94705 12.7958L6.78037 12.4239C6.1243 12.2216 5.46599 11.9575 4.80317 11.6293C4.14936 11.3054 3.55401 10.9102 3.02766 10.4554C2.5013 9.99621 2.07467 9.44968 1.75451 8.83474C1.4261 8.2067 1.2604 7.48042 1.2604 6.64279C1.2604 5.70474 1.43884 4.83363 1.79799 4.02439C2.15189 3.21733 2.67599 2.51579 3.36205 1.91468C4.04886 1.30993 4.88563 0.839808 5.89635 0.502866C6.90483 0.165923 8.0715 0 9.39938 0C10.4303 0 11.3646 0.0909656 12.1976 0.275811C13.0456 0.459201 13.7789 0.681162 14.4095 0.951153C15.0446 1.21314 15.5799 1.49987 16.0178 1.8077C16.4624 2.11044 16.7961 2.38189 17.0233 2.63368L14.1928 6.11736C13.4558 5.59776 12.6857 5.16257 11.8895 4.81835C11.0857 4.48068 10.2699 4.31985 9.43162 4.31985C9.15645 4.31985 8.88577 4.34387 8.6106 4.41082C8.33768 4.46904 8.09476 4.56073 7.86907 4.67717C7.64263 4.80671 7.46342 4.96681 7.33446 5.16257C7.1935 5.35251 7.12978 5.59776 7.12978 5.87648C7.12978 6.18432 7.20924 6.44994 7.3637 6.67481C7.51741 6.89895 7.73636 7.09035 8.01229 7.25118C8.28071 7.41856 8.61361 7.56556 9.00051 7.69874C9.39865 7.82609 9.80203 7.97019 10.2512 8.11209L11.2619 8.41629C11.9667 8.64334 12.6962 8.90315 13.4393 9.19279C14.1726 9.49189 14.8384 9.88705 15.4157 10.3957C16.0096 10.8928 16.4917 11.5157 16.8711 12.2646C17.2497 13.0003 17.4432 13.9136 17.4432 14.9965C17.4432 15.9389 17.2145 16.802 16.7609 17.5996C16.3057 18.3914 15.6976 19.0806 14.9388 19.6475C14.1718 20.2253 13.2586 20.667 12.2254 20.9836C11.1742 21.298 10.072 21.4581 8.89628 21.4581C6.79086 21.4581 5.02811 21.1866 3.60725 20.6467C2.18865 20.1038 0.988976 19.3709 0 18.4533L3.37855 14.5045Z" transform="translate(195.671 22.8588)" fill="white"/>
</svg>
